<svg xmlns="http://www.w3.org/2000/svg" width="46" height="46" viewBox="0 0 8.467 8.467" id="idea"><path fill-rule="evenodd" d="M16 1C9.937 1 4.997 5.936 5 12c.002 3.27 1.502 6.325 4 8.404V24c0 1.645 1.355 3 3 3h8c1.645 0 3-1.355 3-3v-3.592c2.499-2.08 3.999-5.137 4-8.408.003-6.064-4.937-11-11-11zm0 2a8.984 8.984 0 0 1 9 9 8.98 8.98 0 0 1-3.377 7H16c-1.352-.019-1.352 2.018 0 2h5v3c0 .571-.429 1-1 1h-8c-.571 0-1-.429-1-1v-3h1c1.352.019 1.352-2.018 0-2h-1.617A8.976 8.976 0 0 1 7 12a8.984 8.984 0 0 1 9-9zm-.047 3.99a1 1 0 0 0-.85.56l-2 4.003a1 1 0 0 0 .9 1.447h2.378l-1.277 2.553a1.002 1.002 0 0 0 1.792.894l2.002-4.002a1 1 0 0 0-.902-1.447H15.62l1.277-2.553a1 1 0 0 0-.943-1.455zm-2.049 22.012a1 1 0 0 0-.004.002 1.002 1.002 0 0 0 .104 2h3.992a1 1 0 1 0 0-2h-3.992a1 1 0 0 0-.1-.002z" color="#000" font-family="sans-serif" font-weight="400" overflow="visible" paint-order="stroke fill markers" transform="scale(.26458)" style="line-height:normal;font-variant-ligatures:normal;font-variant-position:normal;font-variant-caps:normal;font-variant-numeric:normal;font-variant-alternates:normal;font-feature-settings:normal;text-indent:0;text-align:start;text-decoration-line:none;text-decoration-style:solid;text-decoration-color:#000;text-transform:none;text-orientation:mixed;shape-padding:0;isolation:auto;mix-blend-mode:normal"></path></svg>