<svg width="43" height="43" xmlns="http://www.w3.org/2000/svg" viewBox="0 0 32 32" id="award"><path d="M27,12A11,11,0,1,0,8,19.53V30a1,1,0,0,0,1.39.92L16,28.09l6.61,2.83A1,1,0,0,0,23,31a1,1,0,0,0,.55-.17A1,1,0,0,0,24,30V19.53A11,11,0,0,0,27,12ZM16,3a9,9,0,1,1-9,9A9,9,0,0,1,16,3Zm.39,23.08a1,1,0,0,0-.78,0L10,28.48V21.21a11,11,0,0,0,12,0v7.27Z"></path><path d="M10.22,13.28l.2.15a.93.93,0,0,1,.35,1.06l-.08.24A2.95,2.95,0,0,0,15.24,18l.2-.14a.93.93,0,0,1,1.12,0l.2.14a3,3,0,0,0,4.55-3.3l-.08-.24a.93.93,0,0,1,.35-1.06l.2-.15A3,3,0,0,0,20,7.94h-.25a1,1,0,0,1-.9-.66L18.81,7a3,3,0,0,0-5.62,0l-.08.24a1,1,0,0,1-.9.66H12a3,3,0,0,0-1.74,5.34Zm.83-2.68A.92.92,0,0,1,12,9.94h.25a3,3,0,0,0,2.81-2l.07-.23a1,1,0,0,1,1.82,0h0l.07.23a3,3,0,0,0,2.81,2.05H20a.95.95,0,0,1,.56,1.72l-.2.15a2.93,2.93,0,0,0-1.07,3.3l.08.24a1,1,0,0,1-1.47,1.06l-.2-.14a3,3,0,0,0-3.48,0l-.2.14a1,1,0,0,1-1.47-1.06l.08-.24a2.93,2.93,0,0,0-1.07-3.3l-.2-.15A.92.92,0,0,1,11.05,10.6Z"></path></svg>